<?xml version="1.0" encoding="utf-8"?>
<!-- Generator: Adobe Illustrator 27.4.0, SVG Export Plug-In . SVG Version: 6.00 Build 0)  -->
<svg version="1.1" id="Layer_1" xmlns="http://www.w3.org/2000/svg" xmlns:xlink="http://www.w3.org/1999/xlink" x="0px" y="0px"
	 viewBox="0 0 160 90" style="enable-background:new 0 0 160 90;" xml:space="preserve">
<g>
	<path style="fill:#FFFFFF;" d="M7,89.5c-3.6,0-6.5-2.9-6.5-6.5V7c0-3.6,2.9-6.5,6.5-6.5H39c3.6,0,6.5,2.9,6.5,6.5v5.4
		c0,4.1,3.4,7.5,7.5,7.5h100c3.6,0,6.5,2.9,6.5,6.5V83c0,3.6-2.9,6.5-6.5,6.5H7z"/>
	<path d="M39,1c3.3,0,6,2.7,6,6v5.4c0,4.4,3.6,8,8,8h100c3.3,0,6,2.7,6,6V83c0,3.3-2.7,6-6,6H7c-3.3,0-6-2.7-6-6V7c0-3.3,2.7-6,6-6
		H39 M39,0H7C3.1,0,0,3.1,0,7v76c0,3.9,3.1,7,7,7h146c3.9,0,7-3.1,7-7V26.5c0-3.9-3.1-7-7-7H53c-3.9,0-7-3.1-7-7V7
		C46,3.1,42.8,0,39,0L39,0z"/>
</g>
<g>
	<path style="fill:#FFFFFF;" d="M7,89.5c-3,0-5.2-2.2-6.5-6.6l0.1-52c-0.3-1.7-0.1-3.3,0.7-4.5c1.2-2,3.3-3.2,5.6-3.2h146.2
		c2.3,0,4.5,1.2,5.6,3.2c0.7,1.2,1,2.8,0.7,4.4l0.1,52.1c-1.3,4.4-3.5,6.6-6.5,6.6H7z"/>
	<path d="M153.1,23.7c2.1,0,4.1,1.1,5.2,3c0.7,1.1,0.9,2.6,0.6,4.1l0,0.1l0,0.1l0.1,51.9c-1.2,4.1-3.2,6.2-6,6.2H7
		c-2.8,0-4.8-2-6-6.2L1.1,31l0-0.1l0-0.1c-0.3-1.5-0.1-2.9,0.6-4.1c1.1-1.8,3.1-3,5.2-3H153.1 M153.1,22.7H6.9
		c-2.6,0-4.8,1.4-6.1,3.5c-0.8,1.4-1,3.1-0.7,4.8L0,83c1.1,3.8,3.1,7,7,7h146c3.9,0,5.9-3.2,7-7l-0.1-52c0.3-1.6,0.1-3.3-0.7-4.8
		C157.9,24.1,155.7,22.7,153.1,22.7L153.1,22.7z"/>
</g>
</svg>
